<svg width="24" height="32" viewBox="0 0 24 32" fill="none" xmlns="http://www.w3.org/2000/svg">
<path d="M24 12.0311C24 17.5078 16.6875 27.258 13.4812 31.281C12.7125 32.2397 11.2875 32.2397 10.5188 31.281C7.25625 27.258 0 17.5078 0 12.0311C0 5.38644 5.3725 0 12 0C18.625 0 24 5.38644 24 12.0311Z" fill="#4455EA"/>
<path d="M20 7.4375V14.75C20 15.3269 19.696 15.855 19.2 16.1475V17.3906C19.2 17.7237 18.928 18 18.6 18H18.2C17.8721 18 17.6001 17.7237 17.6001 17.3906V16.375H12.0002V17.3906C12.0002 17.7237 11.7282 18 11.4002 18H11.0002C10.6722 18 10.4002 17.7237 10.4002 17.3906V16.1475C9.91225 15.855 9.60026 15.3269 9.60026 14.75V7.4375C9.60026 5 12.0002 5 14.8001 5C17.6001 5 20 5 20 7.4375ZM12.8002 13.9375C12.8002 13.4906 12.4402 13.125 12.0002 13.125C11.5602 13.125 11.2002 13.4906 11.2002 13.9375C11.2002 14.3844 11.5602 14.75 12.0002 14.75C12.4402 14.75 12.8002 14.3844 12.8002 13.9375ZM18.4 13.9375C18.4 13.4906 18.04 13.125 17.6001 13.125C17.1601 13.125 16.8001 13.4906 16.8001 13.9375C16.8001 14.3844 17.1601 14.75 17.6001 14.75C18.04 14.75 18.4 14.3844 18.4 13.9375ZM18.4 7.4375H11.2002V10.6875H18.4V7.4375ZM8.00029 9.46875C7.9763 8.3475 7.06432 7.4375 5.96034 7.47813C5.42996 7.48901 4.92554 7.71338 4.558 8.10191C4.19046 8.49044 3.98989 9.01131 4.00039 9.55C4.01084 10.0108 4.1747 10.4545 4.46526 10.8086C4.75582 11.1628 5.15593 11.4065 5.60035 11.5V18H6.40033V11.5C7.34431 11.305 8.00029 10.4519 8.00029 9.46875Z" fill="white"/>
</svg>
